<?xml version="1.0" standalone="no"?>
<!DOCTYPE svg PUBLIC "-//W3C//DTD SVG 20010904//EN"
 "http://www.w3.org/TR/2001/REC-SVG-20010904/DTD/svg10.dtd">
<svg version="1.0" xmlns="http://www.w3.org/2000/svg"
 width="512.000000pt" height="512.000000pt" viewBox="0 0 512.000000 512.000000"
 preserveAspectRatio="xMidYMid meet">

<g transform="translate(0.000000,512.000000) scale(0.100000,-0.100000)"
fill="#000000" stroke="none">
<path d="M759 4452 c-91 -48 -139 -155 -109 -248 10 -32 163 -190 813 -841
l802 -803 -802 -802 c-650 -652 -803 -810 -813 -842 -38 -119 52 -258 177
-273 102 -12 60 -49 931 820 l802 802 803 -802 c734 -734 806 -803 847 -813
125 -33 253 55 267 184 11 94 41 61 -820 924 l-802 802 802 803 c861 862 831
829 820 923 -14 129 -152 222 -273 184 -32 -10 -190 -163 -842 -814 l-802
-801 -798 797 c-560 560 -808 802 -834 813 -56 23 -108 19 -169 -13z"/>
</g>
</svg>
