<?xml version="1.0" standalone="no"?>
<!DOCTYPE svg PUBLIC "-//W3C//DTD SVG 20010904//EN"
 "http://www.w3.org/TR/2001/REC-SVG-20010904/DTD/svg10.dtd">
<svg version="1.0" xmlns="http://www.w3.org/2000/svg"
 width="512.000000pt" height="512.000000pt" viewBox="0 0 512.000000 512.000000"
 preserveAspectRatio="xMidYMid meet">

<g transform="translate(0.000000,512.000000) scale(0.100000,-0.100000)"
fill="#000000" stroke="none">
<path d="M1600 4627 c-49 -16 -133 -102 -148 -153 -7 -23 -12 -66 -12 -96 l0
-56 -187 -4 c-166 -5 -197 -8 -265 -30 -118 -39 -204 -92 -294 -182 -89 -90
-142 -174 -183 -294 l-26 -77 0 -1175 0 -1175 27 -80 c40 -116 92 -199 183
-290 91 -91 174 -143 290 -183 l80 -27 1495 0 1495 0 80 27 c116 40 199 92
290 183 91 91 143 174 183 290 l27 80 0 1175 0 1175 -27 80 c-40 116 -92 199
-183 290 -92 92 -176 144 -290 182 -72 23 -100 26 -267 31 l-188 4 0 56 c0 79
-18 127 -67 182 -95 106 -236 108 -338 5 -57 -56 -75 -102 -75 -189 l0 -56
-535 0 -536 0 -24 -25 c-16 -15 -25 -36 -25 -55 0 -19 9 -40 25 -55 l24 -25
536 0 535 0 0 -136 c0 -170 9 -204 75 -269 101 -102 229 -102 330 0 66 65 75
99 75 270 l0 137 178 -4 c158 -4 184 -7 243 -30 94 -35 148 -69 213 -134 104
-104 155 -221 163 -376 l6 -98 -1817 0 -1817 0 -24 -25 c-33 -32 -33 -78 0
-110 l24 -25 1816 0 1816 0 -3 -977 -3 -978 -23 -62 c-65 -173 -196 -300 -372
-359 -53 -18 -117 -19 -1520 -19 -1403 0 -1467 1 -1520 19 -201 68 -355 238
-389 430 -15 83 -15 2209 0 2292 29 162 149 317 302 393 103 50 164 61 344 61
l143 0 0 -136 c0 -170 9 -204 75 -269 51 -52 102 -75 165 -75 92 0 202 80 228
166 16 56 17 571 0 626 -17 59 -88 133 -145 152 -53 18 -112 19 -163 3z m135
-172 l25 -24 0 -271 0 -271 -25 -24 c-15 -16 -36 -25 -55 -25 -19 0 -40 9 -55
25 l-25 24 0 271 0 271 25 24 c15 16 36 25 55 25 19 0 40 -9 55 -25z m1760 0
l25 -24 0 -271 0 -271 -25 -24 c-15 -16 -36 -25 -55 -25 -19 0 -40 9 -55 25
l-25 24 0 271 0 271 25 24 c15 16 36 25 55 25 19 0 40 -9 55 -25z"/>
<path d="M1340 2464 c-227 -82 -293 -362 -125 -529 66 -66 125 -90 225 -89 72
0 93 4 136 26 75 39 107 70 145 140 30 57 33 71 34 148 0 100 -24 159 -90 225
-82 82 -222 116 -325 79z m163 -158 c103 -43 128 -177 48 -257 -65 -65 -157
-65 -222 0 -124 123 13 325 174 257z"/>
<path d="M2105 2215 c-16 -15 -25 -36 -25 -55 0 -19 9 -40 25 -55 l24 -25 911
0 911 0 24 25 c16 15 25 36 25 55 0 19 -9 40 -25 55 l-24 25 -911 0 -911 0
-24 -25z"/>
</g>
</svg>
